<svg width="53" height="118" viewBox="0 0 53 118" fill="none" xmlns="http://www.w3.org/2000/svg">
<path d="M15.6911 0.0680549C21.3117 -0.371355 24.6746 1.37895 29.6477 3.53499C32.6825 2.6238 36.3735 0.921409 38.9636 3.14349C39.8745 4.76301 39.5205 6.25648 39.3953 8.18937C29.4621 13.1459 14.2837 8.42289 9.37538 13.0993C8.68035 15.1889 10.3812 21.0902 10.9856 23.4211C13.2131 32.0215 11.7065 40.2473 14.8234 48.6319C22.4341 49.5047 31.7112 49.2129 39.4946 50.185C41.0228 50.3766 40.9063 50.3235 41.5452 51.23C41.5365 52.7295 40.7034 53.6321 39.8443 54.9015C33.9474 57.165 29.0563 58.7341 22.7018 59.0466C15.3328 59.4091 13.8477 60.3609 14.0074 67.5426C14.1974 75.8818 15.6824 83.2236 17.0681 91.3756C17.8754 96.1206 15.95 106.376 20.0166 109.047C21.7218 108.775 21.575 108.415 23.1248 106.974C32.0868 102.339 42.3136 100.655 52.303 100.974L52.9419 108.616C50.4726 108.558 46.5097 108.458 44.0793 108.916C34.6554 110.691 25.1883 117.582 15.6047 117.664C14.5945 117.673 11.6547 116.643 10.5927 116.276C8.4947 109.937 7.72627 99.8806 7.07442 92.9843C6.48731 85.5985 4.87281 78.1259 4.5145 70.7315C3.74177 54.4535 3.595 38.2708 1.12139 22.1076C0.163032 15.8389 -0.281627 10.3307 0.188919 3.98217C5.16203 1.13075 10.0575 0.665877 15.6911 0.0680549Z" fill="#77B445"/>
</svg>
