<svg width="74" height="105" viewBox="0 0 74 105" fill="none" xmlns="http://www.w3.org/2000/svg">
<path d="M70.2486 0L72.3531 0.172614C74.6751 1.7999 73.9335 3.2157 73.4418 5.64584C69.5647 24.8193 64.6516 43.5136 59.325 62.3245C57.8417 68.9502 57.0551 75.822 55.5373 82.4261C45.8578 124.559 40.0446 96.5752 29.0654 76.4737C22.0616 63.654 16.8381 48.525 10.0898 35.4074C8.23873 31.8076 6.03968 28.3588 4.543 24.4092C3.02689 21.0683 -0.892031 12.9449 0.184613 10.0702C0.719051 8.68027 1.7944 7.56663 3.1646 6.98392C4.65006 6.34077 8.17786 6.37963 8.77317 8.01554C11.5166 15.0211 13.5943 23.205 16.9952 29.9256C23.4059 42.5943 29.861 55.1853 35.9095 68.0352C38.7647 74.1041 41.7878 79.5384 44.1293 85.8792C48.4385 77.2421 46.811 75.8436 48.9777 67.5388C51.2588 62.5577 51.9141 52.4141 53.9525 48.0329C59.8046 35.442 61.3526 9.40977 70.2486 0Z" fill="#6A9BCC"/>
</svg>
