<svg width="80" height="129" viewBox="0 0 80 129" fill="none" xmlns="http://www.w3.org/2000/svg">
<path d="M73.5588 0C78.9792 0.100572 79.1881 3.69009 79.2162 8.26116C79.0988 28.1779 79.5603 48.5099 79.4709 68.3671C79.4299 77.4273 81.0764 104.435 78.6464 111.518C77.6599 112.468 76.6994 113.223 75.3262 113.521C69.693 114.751 55.8866 91.9606 52.3963 87.4413C49.3451 83.4918 45.5281 80.1638 42.4234 76.2532C36.1016 68.298 30.8393 59.4326 25.0282 51.1088C23.1322 48.3934 20.8002 46.0107 18.9409 43.2672C17.0678 40.503 13.6048 32.3161 11.464 30.8368L10.7715 31.2948C7.69788 37.5506 10.8574 51.7632 10.6239 59.0117C10.0368 77.246 11.4355 96.1259 7.33093 114.048C6.3294 118.42 5.88995 122.417 5.51136 126.859C4.8867 128.033 4.83747 128.357 3.62312 128.909C2.34573 128.654 1.54279 127.381 0.648317 126.328C0.617235 125.875 0.589178 125.421 0.565003 124.964C0.21015 118.36 0.445861 110.577 0.457949 103.848L0.465274 66.4765C0.421241 50.8779 -0.165425 35.3384 0.0456737 19.7743C0.0698486 17.9882 0.293885 15.3552 1.49529 14.0218C3.71117 12.8978 7.85414 12.8776 9.65258 14.9628C17.0497 23.5395 23.0157 33.4055 29.7467 42.3888L68.8348 93.8296L72.4036 88.8916C73.4751 77.5524 71.3296 70.4045 70.3445 59.6221C69.4474 49.804 67.8454 10.1384 70.6039 2.54237C71.1383 1.07048 72.2107 0.637965 73.5588 0Z" fill="#6A9BCC"/>
</svg>
