<svg width="96" height="106" viewBox="0 0 96 106" fill="none" xmlns="http://www.w3.org/2000/svg">
<path d="M57.2887 0C64.1738 4.80848 61.9786 11.7083 63.5305 18.7328C66.283 31.1929 68.0633 42.2386 72.9134 54.1575C74.6156 54.8689 75.8273 55.1861 77.0611 56.5363C78.0419 60.576 71.5726 62.8814 72.5098 65.4479C74.3358 70.4472 78.0691 99.5217 84.5614 99.033C86.5169 97.0548 86.7065 94.181 88.1777 92.1C89.6143 90.0674 93.2406 88.8515 95.3157 90.6324C95.9477 92.7082 92.5697 100.678 91.6778 103.826C77.5645 108.751 73.9119 104.169 69.5393 91.4962C66.8002 83.5574 66.2187 77.6142 65.0212 69.5036C60.0342 68.3706 51.1483 72.706 46.2239 73.7488C42.1837 74.6048 38.0584 74.8288 34.0255 75.6955C23.8976 80.567 21.9778 102.32 15.0297 105.146C13.9436 105.588 12.8337 105.524 11.7631 105.062C10.9752 104.721 10.1183 104.045 9.8265 103.234C8.77791 100.32 19.553 80.2472 21.3799 75.9929C15.4981 73.7501 5.40034 72.0801 1.43091 66.3069C-0.870446 62.9595 0.126339 59.5759 0.841656 55.9199C3.35196 54.3647 4.52703 54.0056 7.30023 53.0206C7.82344 55.6717 8.09152 59.6635 8.34147 62.4256C11.8542 64.2428 16.785 67.1508 20.5071 67.929C22.9733 68.4332 26.8948 65.3482 27.9093 63.1421C34.6282 48.5384 40.8761 33.4392 46.4475 18.3374C48.9056 11.6759 51.1461 4.15843 57.2887 0ZM43.4494 67.0981L44.1233 66.7459C49.8143 63.8103 59.138 63.3178 62.245 58.2184C62.7487 52.011 57.4531 31.4808 56.5289 23.7519C56.0406 23.126 56.2504 23.2175 55.6089 22.8916C51.81 26.9741 36.2613 63.3044 38.6926 67.6838C40.4306 68.7133 41.7563 68.1647 43.4494 67.0981Z" fill="#E3DACC"/>
</svg>
