<svg width="95" height="117" viewBox="0 0 95 117" fill="none" xmlns="http://www.w3.org/2000/svg">
<path d="M90.5435 0C92.3393 0.22877 92.2443 0.207185 93.8071 1.1309C97.0059 5.16674 91.9206 16.985 91.7522 22.7561C91.4328 31.5054 91.5623 40.2807 91.4673 49.0344C91.7436 54.2961 90.5478 60.2009 90.8413 65.3892C91.791 82.0678 91.4328 98.7853 91.6702 115.468C84.3141 116.124 82.4535 115.192 82.2636 106.978C82.0779 99.0097 81.6851 91.5769 80.9426 83.6692C79.259 89.0302 73.1246 100.054 69.4121 104.28C67.9875 105.916 66.3082 107.319 64.4476 108.432C62.6086 109.537 47.046 116.552 45.4315 116.392C38.0495 115.641 27.7234 111.514 22.0682 106.309C1.3814 87.282 1.49795 77.0262 0.151062 51.0544L0.107903 23.5331C0.11222 19.4756 -0.807286 7.33358 2.64627 5.29624C5.70266 5.38257 6.96749 8.69322 7.36033 11.3651C10.4383 32.2867 7.66684 53.4673 11.4139 74.294C13.7149 87.1008 23.2855 96.5969 33.3742 104.025C37.8163 107.297 43.8515 107.794 49.1656 106.715C57.6225 104.975 61.5466 98.0946 66.5413 92.8459C74.8341 84.1354 72.0195 85.4864 73.9103 75.1875C76.099 64.8151 78.7453 53.8989 80.4548 43.4619C81.7758 32.9471 81.7844 22.7431 84.625 12.401C86.1532 6.83286 82.2204 0.910762 90.5435 0Z" fill="#E3DACC"/>
</svg>
