<svg width="60" height="129" viewBox="0 0 60 129" fill="none" xmlns="http://www.w3.org/2000/svg">
<path d="M29.3231 0.139124L29.8579 0.0873289C39.2067 -0.711206 53.2441 3.94617 55.0542 14.9012C55.5256 17.7544 53.9016 19.5889 52.164 21.6262C50.7286 21.5226 49.295 21.406 47.863 21.2636C46.4648 8.32732 42.3835 12.5531 34.2716 6.70436L33.8109 6.36767C25.7232 10.8006 16.6757 11.815 11.2157 19.0277C7.74313 23.6161 9.6391 35.9049 10.6691 41.3694C17.7903 49.3807 25.5695 53.7057 33.6145 60.1501C49.4979 72.8619 62.5808 87.378 59.5753 109.262C58.1822 119.406 47.8975 122.855 41.0958 127.948C34.9726 128.751 28.7273 128.587 22.5653 128.462C15.2485 127.667 3.91268 120.204 1.60139 112.681C0.872692 110.311 -0.755207 104.436 2.3763 103.452C8.40534 105.088 19.5888 124.149 28.7882 122.626C34.7628 121.633 45.8159 114.381 49.9567 109.819C52.0664 107.492 51.3697 102.429 50.7886 99.5891C47.2025 82.4746 32.155 69.8404 18.5627 60.1846C10.2551 54.146 2.07628 49.7994 0.571823 39.0084C-1.84955 21.6392 3.12183 7.94317 21.2025 3.47138C23.4559 2.91456 25.0497 0.812483 29.3231 0.139124Z" fill="#6A9BCC"/>
</svg>
