<svg width="78" height="119" viewBox="0 0 78 119" fill="none" xmlns="http://www.w3.org/2000/svg">
<path d="M75.652 0C75.993 0.140283 76.5283 0.536528 76.8607 0.757097C79.1875 10.4945 67.1994 12.2633 64.0394 16.5068C57.5856 25.1759 36.4714 46.0094 33.169 55.1783C35.1461 60.1224 37.896 63.3679 40.7279 67.8133C42.6145 70.7696 44.5484 75.2276 46.504 77.906C52.4657 86.1542 58.8461 94.0359 64.687 102.39C67.4757 106.385 74.1583 111.422 72.4057 116.644C72.138 117.433 71.0502 118.164 70.2083 118.223C68.1794 118.365 66.5217 117.188 65.0669 115.91C58.2116 109.633 53.4716 101.874 48.0754 94.4749C44.3153 89.3147 40.4948 84.2118 36.9247 78.9842C34.8267 75.9144 27.639 62.8214 25.4719 61.5131C21.2327 64.6442 20.3779 68.1332 14.4723 71.7913C13.9888 77.5676 14.032 83.39 13.9888 89.1895C14.0493 99.4781 14.0492 108.033 13.4535 118.301C11.295 118.114 8.97256 117.813 6.80546 117.574C6.73638 117.381 6.66295 117.189 6.5982 116.995C3.40798 107.637 5.33335 70.7429 4.78078 57.8834C4.34046 47.6423 -2.3292 9.43394 0.861021 2.72193C2.02228 2.3205 3.79221 2.63603 4.6815 3.35816C9.77981 7.48896 9.76252 19.8727 10.328 25.4793C11.4591 36.7486 11.7915 47.5664 14.7529 58.328C22.0831 52.7586 30.3155 42.9284 36.9204 36.0903C39.1609 33.7759 42.5238 28.1861 44.8722 25.5458C51.9865 17.5453 65.1446 2.06756 75.652 0Z" fill="#6A9BCC"/>
</svg>
