<svg width="85" height="120" viewBox="0 0 85 120" fill="none" xmlns="http://www.w3.org/2000/svg">
<path d="M1.76665 0.0892239C4.55582 -0.00746361 6.76696 -0.42055 8.51187 1.93578C8.9155 3.91571 8.20881 5.44114 7.60271 7.42582C11.4599 16.5585 10.8119 37.8155 11.4413 47.9866C11.7923 53.6558 12.1351 57.3325 13.0136 63.1316C13.4927 63.3259 13.9741 63.5149 14.4576 63.6988C20.2777 65.8984 25.6277 63.8374 31.5911 63.2387C41.8477 62.2088 52.517 60.7934 62.7374 62.7056C65.2723 63.18 68.8381 63.9845 71.2245 62.9063C72.7086 60.8185 71.1416 53.0731 70.9819 50.3844C70.7237 46.0374 74.1073 10.6756 75.32 9.3177C76.8438 8.93959 76.8067 8.87829 78.3155 9.13296C82.0829 11.5799 82.9925 22.2466 81.5627 26.219C80.869 28.1454 80.7748 30.4331 80.6984 32.4817C80.1027 48.4602 79.9542 64.452 80.2529 80.4387C80.4683 92.0002 79.7578 100.202 84.161 111.108C85.4643 115.841 84.6817 117.18 80.4489 118.641L75.794 117.445C74.0806 110.174 73.0838 104.488 72.4824 97.0884C72.1936 93.5347 71.1183 89.4362 70.9594 85.6451C70.7565 80.809 70.7824 76.0183 70.3529 71.2141C59.8403 70.3491 46.5614 71.1917 35.9857 70.8968C32.0193 70.7863 14.4511 70.6521 13.2881 74.2822C11.6149 84.8885 15.7358 97.1328 15.7376 108.133C15.7384 114.758 14.3566 124.813 6.18632 116.597C4.04123 102.486 5.60829 86.3936 4.75829 72.1262C3.64538 54.0724 0.436613 36.2654 0.424957 18.1158C0.421504 13.2793 -1.14772 3.82594 1.76665 0.0892239Z" fill="#77B445"/>
</svg>
