<svg width="94" height="129" viewBox="0 0 94 129" fill="none" xmlns="http://www.w3.org/2000/svg">
<path d="M52.2955 0.0417667C59.1292 -0.278942 62.3238 1.25078 68.2552 4.51053C71.7217 6.41622 77.5971 9.78086 79.6347 12.9767C82.5702 17.4503 81.9917 24.3388 83.9387 28.9941C88.329 39.4894 91.4242 45.4046 92.4776 56.869C93.5957 69.0261 94.9339 81.8674 87.8844 92.8527C85.2726 96.9144 82.6868 100.592 79.9326 104.537C73.7594 113.947 70.2799 120.4 59.0731 124.414C56.388 125.377 53.9446 126.659 50.8666 127.393L50.1371 127.561C47.085 128.29 44.6934 128.195 41.542 128.247C30.3914 128.195 20.5358 120.784 14.0302 111.996C8.01236 103.86 2.81044 90.4139 0.997326 80.6459C-0.0387391 75.0604 0.40159 67.9988 0.108038 62.3042C-0.228683 48.3251 -0.345254 33.07 8.83688 21.5202C13.0804 16.1812 24.2441 6.09597 31.2073 4.54551C34.0435 3.91446 39.1245 3.92998 41.9089 3.25446C45.7726 2.31608 48.052 0.612396 52.2955 0.0417667ZM47.603 119.925C49.8521 119.053 56.6254 116.688 58.0586 115.41C74.7911 100.484 90.6688 79.4416 83.8264 55.6457C82.5788 51.2956 82.7861 46.6931 80.5499 42.0098C70.5734 21.1378 73.0384 6.11021 43.9293 10.0097C29.0704 12.0992 18.1744 20.0185 12.2904 34.5652C8.8671 43.0289 7.20507 56.1257 7.6454 65.3188C10.2269 83.9566 14.5266 104.002 30.5036 115.902C34.9285 119.2 42.2673 122.783 47.603 119.925Z" fill="#CBCADB"/>
</svg>
