<svg width="68" height="108" viewBox="0 0 68 108" fill="none" xmlns="http://www.w3.org/2000/svg">
<path d="M2.2168 0C10.7419 0.478258 10.0546 18.9335 11.5742 25.1314C16.0228 43.2789 20.6018 60.0537 20.8794 78.8991C20.967 84.8558 23.5481 94.0713 24.6425 100.132C25.2555 103.498 36.647 97.7273 38.9704 98.6424C40.9739 99.0913 42.237 99.3978 44.4758 100.239C49.2948 98.7805 64.3786 95.0598 67.8088 100.084C68.1779 101.504 67.8114 102.16 67.3758 103.567C65.845 106.084 61.9179 107.56 58.7899 107.085C53.6527 106.308 20.2823 109.032 17.7902 106.434C13.3398 101.798 13.3083 85.7536 12.6081 78.8603C11.1991 64.9874 8.88346 51.3259 4.83935 37.8644C3.92243 32.7455 3.2641 27.5374 2.45295 22.3978C1.53819 16.6013 -2.43686 4.51496 2.2168 0Z" fill="#E3DACC"/>
</svg>
