<svg width="110" height="97" viewBox="0 0 110 97" fill="none" xmlns="http://www.w3.org/2000/svg">
<path d="M53.8205 0C57.5927 0.129492 58.656 1.4676 61.2975 4.01428C62.3715 8.53356 64.3159 13.0399 65.2855 17.2829C66.796 23.8913 67.371 27.1588 70.0747 33.4565C76.0394 47.3467 80.5852 62.7692 91.1716 74.022C95.814 68.1431 92.866 53.6314 94.3691 45.8661C94.5871 41.8476 96.4162 36.9787 96.6653 33.0766C97.3081 23.0064 100.21 13.5147 101.334 3.58264C102.537 2.37404 103.987 1.26905 105.321 0.189949L109.626 2.01146C110.145 13.0442 104.682 29.5156 103.255 40.203C101.523 53.1695 101.504 67.8021 99.6397 80.9024C98.74 87.2173 98.1667 87.8821 93.2329 91.5381C79.8003 82.9096 67.3952 53.4156 61.9778 38.1873C59.8509 32.2091 60.7359 27.0337 57.0255 19.0138C55.8802 21.1418 54.8488 22.9115 54.061 25.2035C52.0282 31.3587 51.3642 37.4146 49.9534 43.6561C48.0971 51.8703 38.2558 91.4863 33.878 95.4789C33.0168 96.2645 32.0697 96.6184 30.9032 96.5364C29.1652 96.4113 27.5688 95.3494 26.4801 94.0372C22.3185 89.0216 21.6257 78.6579 19.8281 72.425C16.9595 62.48 12.365 53.0012 9.52013 43.1079C8.34506 39.0246 7.89652 34.6607 7.0845 30.4911C6.09247 25.3891 4.68213 20.2224 3.18113 15.2499C2.34191 12.4744 -0.429994 6.66025 0.0569566 3.97113C0.164017 3.37978 0.887965 2.96973 1.387 2.68917C2.6428 1.98991 4.05401 1.51078 5.47385 1.97695C7.17473 2.53808 8.14864 4.01858 8.8687 5.56817C12.1668 12.6643 13.2323 20.5461 15.2496 28.0048C17.7784 37.3499 20.8879 46.6776 23.864 55.8975C26.2893 63.4123 28.1421 70.379 31.5167 77.5745C34.5549 70.7934 34.5243 65.1519 36.4103 58.2456C37.7866 53.2084 40.751 47.0834 42.0358 41.9166C45.526 27.8883 49.2532 13.7348 53.8205 0Z" fill="#E3DACC"/>
</svg>
