<svg width="85" height="115" viewBox="0 0 85 115" fill="none" xmlns="http://www.w3.org/2000/svg">
<path d="M0 0.024294C0.949727 -0.0145536 2.76286 -0.0749833 3.57876 0.455935C24.4339 14.0138 30.8704 45.7307 51.0565 59.1504C52.7444 55.5505 53.6164 50.6471 55.4684 47.0084C62.6345 32.9282 65.3024 16.7028 74.7953 3.91765C76.276 1.91915 82.1169 0.831418 84.2063 3.05437C84.5171 6.1147 81.1153 11.0095 79.5699 14.0353C74.8428 23.2768 70.9058 37.6504 65.9197 46.253C64.4088 49.0414 63.2475 52.9909 62.1683 56.0728C56.103 73.1313 51.5659 91.0487 47.6159 108.616C45.1984 119.382 33.4951 113.149 39.4827 98.3132C41.8182 92.5292 45.7466 76.252 46.5712 70.291C41.4858 63.2467 35.3212 57.9202 30.1927 51.1176C22.5431 40.9784 15.7741 28.9485 9.06125 18.123C5.78901 12.844 0.932459 6.04136 0 0.024294Z" fill="#77B445"/>
</svg>
