<svg width="104" height="128" viewBox="0 0 104 128" fill="none" xmlns="http://www.w3.org/2000/svg">
<path d="M50.3984 0.383469C65.4347 -1.17044 77.6378 1.96328 90.0542 10.4234C93.1287 12.5169 101.735 25.1985 102.167 28.8113C104.399 47.4582 104.32 67.7668 99.1086 85.9691C97.6749 91.0539 90.555 101.784 90.2221 105.367C89.3087 115.2 102.957 116.305 93.5734 127.182C92.1924 126.116 89.7171 124.217 88.7363 122.831C81.8671 113.145 84.3261 111.423 71.9451 117.151C69.0307 118.644 66.7237 119.331 63.4895 119.581C50.3945 120.595 44.2757 122.097 31.8273 117.185C14.209 110.232 2.34435 93.4883 0.60031 74.7508C-1.42692 52.9659 1.31088 32.2126 14.525 14.278C21.2007 5.42932 39.8996 1.17337 50.3984 0.383469ZM35.6301 10.4363L35.217 10.8292C31.5005 14.3643 25.5729 16.0822 22.7652 18.4347C18.4901 22.0173 11.6897 37.7808 11.0149 43.267C9.34211 56.855 6.9419 74.6688 13.5209 87.2425C16.81 93.5272 19.1221 97.7875 24.1414 102.915C29.2385 108.484 34.0095 109.722 40.9633 111.803C43.417 112.532 44.6456 114.414 48.3616 114.462C56.5189 114.574 64.5182 110.676 72.0409 107.707C74.6229 106.33 75.4673 105.79 77.7013 103.856C77.7319 103.032 77.9189 98.3745 77.7294 97.891C76.1183 93.7905 70.4216 87.5878 71.2552 82.9433C74.6479 79.9477 80.0065 86.949 81.9988 89.3705L84.8316 92.8452C93.9675 82.8829 94.0068 67.8489 94.0988 54.9644C94.1678 45.2439 96.2779 32.0961 88.9145 23.8863C88.0891 22.9669 85.0975 22.1338 83.8879 21.7885C79.6046 16.0175 75.6775 10.1817 67.7192 9.52559C62.7962 9.11553 46.4294 8.71842 42.065 9.422C39.8573 9.70688 37.8059 9.93564 35.6301 10.4363Z" fill="#77B445"/>
</svg>
