<svg width="88" height="108" viewBox="0 0 88 108" fill="none" xmlns="http://www.w3.org/2000/svg">
<path d="M59.0723 0.276764C65.2196 0.242232 72.5929 -0.50019 78.5891 0.600494C79.7893 0.820631 80.6311 0.980338 81.257 2.11124C84.3652 7.75278 61.861 39.3834 57.5182 45.1976C54.9021 48.6982 51.8112 51.8794 49.3203 55.4577C47.1273 58.613 45.3573 62.0532 43.1989 65.2344C41.049 68.4069 38.4632 71.2773 36.3824 74.4973C34.1894 77.8944 32.4972 81.6626 30.1401 84.9431C27.4593 88.6854 22.6459 91.6508 21.5753 96.3125C24.7526 100.871 78.3733 95.6823 86.3553 99.1354C87.767 101.294 87.0158 104.561 86.6791 107.129C74.1384 104.289 69.8474 103.387 56.6418 104.229C43.6392 105.062 32.1518 103.65 19.1319 107.358C16.4727 107.155 11.6118 106.452 9.32386 105.213C8.6202 103.068 8.53384 98.5397 9.78575 96.7441C18.8082 83.5187 29.3976 70.3795 37.9149 56.7915C42.6506 49.2291 71.7857 13.5065 67.7018 6.13842C62.6769 4.80897 53.6372 8.71101 48.6339 9.70378L29.0091 13.6533C24.0662 14.6245 21.8991 14.4001 17.0296 16.4719C13.0235 18.1812 4.66588 20.5509 0.469817 18.6388C-1.05838 16.2734 1.48428 14.4993 3.20242 13.0792C9.98865 11.9958 9.28503 10.8563 14.4654 9.40597C19.9522 7.86933 25.1886 6.2075 30.6409 4.53273C32.7562 3.88527 38.6834 3.67808 41.157 3.06947C48.8023 1.18751 51.2716 0.337193 59.0723 0.276764Z" fill="#CBCADB"/>
</svg>
