<svg width="69" height="76" viewBox="0 0 69 76" fill="none" xmlns="http://www.w3.org/2000/svg">
<path d="M59.4423 0.144989C66.4888 -0.529665 66.7846 1.03892 67.5832 7.2062C69.5651 22.5135 69.0285 38.0646 68.5757 53.4578C68.4341 58.2663 69.0173 67.4084 66.0382 70.7968C64.4267 71.4658 65.2141 71.4356 63.5978 70.9781C57.694 65.7898 61.9336 50.4406 61.9384 43.8322C61.9414 39.9992 63.0297 18.2001 60.9761 16.8262C56.5754 17.9912 55.2251 26.3037 52.9462 29.8022C47.3575 38.3814 42.9425 53.501 36.8112 61.1151C35.4695 61.6028 33.2083 62.0863 31.7578 62.4445C29.3679 61.3827 28.0107 60.6144 27.2725 58.0159C24.0883 46.8235 26.7946 32.5357 21.0617 22.09C20.1901 25.1706 19.7813 28.3889 19.2995 31.5585C17.7744 38.2036 15.002 45.4163 13.3965 52.3787C11.9335 58.7238 10.1606 75.2168 2.19624 75.4412C0.118494 74.3103 -0.367161 72.1133 0.248002 69.899C5.97486 49.2666 10.5288 28.4667 15.7363 7.74791C16.0847 5.91991 18.3144 3.84889 19.9764 3.21179C25.9821 0.0728967 31.1975 16.2011 31.1733 20.2819C31.112 30.6434 32.8254 35.2106 35.5852 45.0753C45.047 37.5302 49.5708 6.31054 59.4423 0.144989Z" fill="#BCD1CA"/>
</svg>
