<svg width="74" height="119" viewBox="0 0 74 119" fill="none" xmlns="http://www.w3.org/2000/svg">
<path d="M31.4955 0.0510455C35.7645 -0.425054 44.1592 2.54895 48.3009 3.99581C66.3267 10.293 75.8266 29.8571 61.9467 45.4251C60.1392 47.4521 56.2454 51.4335 55.3194 53.8706C55.5749 56.7224 65.3748 63.1465 68.2659 67.9719C73.3698 76.4912 74.2751 85.6454 72.3592 95.2818C71.1315 101.454 66.0448 109.152 61.0907 112.824C59.6139 113.918 55.2866 116.275 53.3275 117.5C50.8734 119.001 25.4293 118.921 21.1236 118.209C17.31 117.578 9.03791 115.12 3.27739 114.545C2.78871 95.9789 0.915158 76.5218 0.224016 57.8736C-0.461514 39.38 0.486043 21.9326 2.25253 3.57367C5.25065 2.92966 7.53346 2.46607 10.5937 2.25112C18.1523 1.72063 24.3777 3.05095 31.4955 0.0510455ZM10.8571 61.6237C11.0254 68.0297 10.7314 105.392 12.8161 107.675C16.0253 108.552 18.9276 108.752 21.8303 109.444C29.4052 111.25 30.6619 112.545 38.3922 112.352C45.2605 112.524 52.6506 108.615 57.815 104.495C66.0854 97.8975 65.9706 76.9103 58.7514 69.8922C52.6304 63.9421 44.9319 56.6922 35.8858 57.5382C27.6581 62.345 20.4411 61.4226 10.8571 61.6237ZM50.6942 46.1619C57.2193 41.6729 62.2498 26.1856 56.6607 19.4054C45.1646 5.46123 24.0639 9.39218 8.80048 8.53754C9.01417 11.7183 10.1133 19.692 9.98332 21.7811C9.53263 29.0361 7.75708 46.7334 9.90778 53.4713C11.4701 54.512 19.5859 51.4737 22.0954 51.4323C32.665 51.2592 41.4465 52.2619 50.6942 46.1619Z" fill="#BCD1CA"/>
</svg>
