<svg width="61" height="107" viewBox="0 0 61 107" fill="none" xmlns="http://www.w3.org/2000/svg">
<path d="M1.9299 0.222752C4.40782 -0.0875977 7.32609 -0.416499 8.96221 1.8017C9.81696 4.74333 8.43555 6.4811 7.02391 9.33381C8.30604 12.1278 9.26439 14.5183 10.0932 17.4638C10.7322 19.7433 11.2804 23.6898 12.2431 25.6343L12.8129 25.6485C14.4534 22.6516 20.3978 13.1789 23.3894 12.3691C30.6894 10.8079 42.9495 11.0353 49.7961 13.5423C70.8283 21.2462 55.4988 51.5824 41.0975 57.3789C36.3791 59.2781 26.7998 54.7726 22.0641 52.6248C20.592 51.6065 18.6063 49.8985 17.1644 48.7353C15.3815 56.4893 15.8736 67.4305 15.8995 75.6748C15.9643 85.9997 15.96 96.3245 15.8866 106.649C13.3051 106.783 9.94645 107.232 7.69732 106.023C5.68563 102.808 5.21511 83.9796 5.18921 79.0244C5.15899 64.9572 4.83089 50.8892 4.20925 36.8332C4.01499 31.6462 4.2438 25.9995 3.73008 20.897C3.46243 18.1876 0.259258 13.0757 0.112482 9.93854C-0.0558787 6.33952 -0.349448 3.14194 1.9299 0.222752ZM17.1644 41.3313C20.441 43.6596 30.508 48.2622 34.4149 48.5928C38.3131 48.5863 40.8903 48.1819 43.6704 45.0344C53.7116 33.6572 53.3188 15.0811 33.2838 18.0094C29.1871 18.5407 27.2574 19.1161 24.5593 22.7837C20.8597 27.8167 18.6063 35.3816 17.1644 41.3313Z" fill="#77B445"/>
</svg>
