<svg width="76" height="94" viewBox="0 0 76 94" fill="none" xmlns="http://www.w3.org/2000/svg">
<path d="M0.609092 0.362387C3.49583 -0.0390385 5.06635 -0.0174248 8.00014 0.0171064C8.88727 3.56519 10.8428 19.0568 14.0952 19.1647C16.4695 17.6237 18.7946 13.7821 21.0006 11.5376C23.542 8.95204 26.0695 6.41399 28.6571 3.86731C43.1814 3.62127 50.4037 4.06587 57.2378 18.8193C63.6778 32.7225 51.0586 51.4427 38.5028 56.4239C41.2475 59.454 44.5918 61.6251 47.6974 64.2366C52.3217 68.117 73.4721 86.0128 75.0724 91.0112C75.2865 91.6803 75.2447 91.9824 74.8328 92.5781C74.4361 93.1565 73.6146 93.6399 72.9601 93.7694C67.8286 94.7881 48.2906 76.3225 43.3667 72.3341C39.8056 69.4033 36.0775 66.6797 32.2005 64.1805C28.168 62.4626 22.4243 64.7589 19.8139 61.159C19.6951 57.2483 25.5334 55.9707 28.5531 54.3002C47.7445 43.6689 60.6413 23.5717 35.9678 9.54339C9.12425 23.7314 17.9166 63.1532 13.2758 87.3682C9.99843 86.7121 9.07893 86.4013 6.58417 84.2043C5.15958 78.1483 5.00546 70.0076 4.83753 63.7316C4.54829 52.9406 4.44124 42.1452 4.51679 31.3499C4.51895 23.5588 4.77365 13.5965 3.65556 6.11619C1.98404 5.09752 0.931151 4.71336 0.0362491 3.04723C-0.066494 1.61419 0.0267369 1.62278 0.609092 0.362387Z" fill="#CBCADB"/>
</svg>
