<svg width="56" height="89" viewBox="0 0 56 89" fill="none" xmlns="http://www.w3.org/2000/svg">
<path d="M9.84761 0.0371158C13.1142 -0.296111 16.5466 1.71576 20.2268 2.02697C28.9138 2.86479 37.454 4.46876 46.0827 5.79822C49.9127 6.38827 58.117 9.56299 54.7882 14.6952C51.5182 15.8762 49.1551 12.5754 46.0732 12.1748C41.7286 11.6103 37.103 12.9 32.7114 12.67C29.3688 12.4947 26.1315 11.1622 22.7794 11.091C21.098 11.0552 18.7815 11.388 17.5827 12.6989C16.2652 14.1392 17.4515 38.8662 17.7735 42.5857C25.3221 42.868 35.9448 42.0362 43.0505 43.0859C42.6348 44.4465 42.2385 46.1799 41.8733 47.5871C37.274 49.3715 32.8582 49.5342 27.9693 50.0353C23.9066 50.6401 20.3714 52.3977 16.9494 54.5728C16.162 61.6327 16.6865 72.8886 17.0819 80.2157C17.1216 80.9469 18.9292 86.2573 19.2767 87.2743C18.5406 88.6827 19.0772 88.1984 17.6341 88.801C6.27274 88.4026 7.93003 64.892 7.2078 56.658C4.89781 55.0769 2.96598 54.5805 0.97414 52.3809C-2.9137 48.0878 5.88854 46.1838 8.92421 45.7794C9.50398 39.1908 9.38958 31.309 8.18558 24.831C7.27125 19.9116 4.5831 17.0602 1.12393 13.6903C3.28931 8.70661 5.69298 3.678 9.84761 0.0371158Z" fill="#6A9BCC"/>
</svg>
