<svg width="84" height="108" viewBox="0 0 84 108" fill="none" xmlns="http://www.w3.org/2000/svg">
<path d="M2.77196 0C13.8954 1.12227 36.2895 32.2263 43.6776 41.5627C51.2624 35.6147 57.6044 24.9489 63.1772 16.9333C65.7349 13.2514 67.261 9.26732 70.4573 5.55521C72.7314 5.00703 77.054 3.78984 78.4207 6.02142C78.6901 11.9522 71.7713 17.8915 69.2921 23.6971C66.3216 30.6551 52.0351 44.6187 51.4662 51.5077C51.9173 56.7608 60.2304 64.4569 61.8782 67.8539C63.9413 72.1056 83.3438 95.6386 83.0796 97.1364C81.2039 107.781 72.3148 96.9724 68.9623 93.0272C66.2513 89.9798 62.8137 86.2634 60.4674 83.0088C55.626 76.2925 49.1471 66.1101 43.6016 60.1535C35.614 67.8583 27.7558 81.6146 20.6437 90.3726C18.2102 93.3682 16.2305 97.5076 13.5574 100.274C11.2107 102.705 3.77952 109.032 0.488284 107.392C-0.408344 105.454 -0.0193862 101.91 1.2403 100.352C6.03124 94.4258 10.8278 88.4475 15.4573 82.3916C22.7469 72.848 29.5353 60.6628 37.5497 51.9177C33.8276 42.6073 20.1882 27.2279 13.5315 19.0051C11.1231 16.0657 8.79927 13.0226 6.43143 10.0486C4.95374 8.19687 1.01927 5.27469 0.651039 3.00858C0.970924 1.64027 1.78425 1.03162 2.77196 0Z" fill="#BCD1CA"/>
</svg>
