<svg width="79" height="119" viewBox="0 0 79 119" fill="none" xmlns="http://www.w3.org/2000/svg">
<path d="M41.978 0.14592C43.4229 -0.04875 44.7119 0.0302373 46.1357 0.00131739C52.9366 -0.135513 79.326 10.4134 77.4892 19.1217C74.883 22.1462 62.2253 13.6356 58.5322 11.8688C25.0345 -4.15754 5.78393 42.3832 9.97352 68.9831C11.2993 77.4001 25.4614 101.193 33.9446 105.743C39.8109 108.89 43.46 107.323 50.0023 112.359C53.196 109.43 54.0214 109.265 58.2184 108.169C63.5446 106.494 74.2674 93.5763 78.445 97.8366C78.7165 99.3361 78.5265 100.42 77.9968 101.794C74.1751 111.707 71.1441 112.349 61.7233 114.95C60.7261 115.226 58.8417 116.919 57.8682 117.245C48.0537 120.534 38.0949 116.316 29.2573 112.612C18.4503 108.084 13.9896 99.3024 8.67931 89.7571C7.41919 87.4918 2.96323 80.2813 2.28331 78.1667C-2.58922 63.0096 0.986508 42.713 6.9059 28.411C11.9451 16.2362 20.3791 8.22537 32.1609 3.23129C34.7657 2.12715 38.6959 1.38991 41.978 0.14592Z" fill="#6A9BCC"/>
</svg>
