<svg width="93" height="114" viewBox="0 0 93 114" fill="none" xmlns="http://www.w3.org/2000/svg">
<path d="M34.275 0.155349C43.6773 0.0159288 50.4722 -0.735558 59.391 2.98518C69.5919 7.23987 85.4264 19.823 89.8513 30.1548C92.9595 37.4154 92.2818 54.2309 91.0299 62.2097C90.46 65.8312 87.6885 73.1669 86.1647 76.819C82.3917 85.8641 73.3391 97.9599 65.1326 103.355C63.4533 104.458 54.4826 108.097 52.376 108.935C40.5778 113.94 23.3963 114.228 10.5491 113.713C7.72154 108.535 6.8236 106.549 6.43076 100.548C4.91551 77.4592 1.98866 54.495 1.39292 31.3379C1.26341 26.3779 0.719443 21.6519 0.00714806 16.748C-0.286404 12.6198 8.54174 7.95466 11.7147 6.46636C16.9209 4.02327 23.5215 3.43581 28.8961 1.08208C30.3121 0.463103 32.7511 0.284409 34.275 0.155349ZM9.94043 15.9413C9.94475 21.8656 11.0197 27.7268 11.2787 33.5993C11.7234 43.7277 11.6413 53.9697 12.2371 64.0925C12.6904 71.765 14.0545 79.2967 15.0517 86.9216C15.695 91.8496 14.3739 102.817 17.4864 106.335C23.9705 108.906 38.6697 105.269 45.2875 103.051C47.0186 102.471 49.2462 102.428 50.9125 101.859C63.3539 94.0713 70.2611 90.7464 76.4559 76.5518C79.2835 70.0725 80.2979 68.011 82.4089 60.7115C85.3185 50.6413 84.7875 37.6446 79.1324 28.417C74.3449 20.6017 55.5835 10.2009 46.492 7.20749C44.8084 6.7124 40.7504 6.5678 39.0755 6.54751C33.5757 7.22864 32.8634 8.4027 28.4601 9.65489C21.6782 11.5835 16.5238 13.3402 9.94043 15.9413Z" fill="#CBCADB"/>
</svg>
