<svg width="99" height="123" viewBox="0 0 99 123" fill="none" xmlns="http://www.w3.org/2000/svg">
<path d="M53.3711 0.0540468C63.0018 -0.469102 80.5325 2.83295 88.5607 8.77232C92.4476 11.6479 101.305 17.9818 96.8103 23.3018C89.699 26.7981 85.4909 15.7118 78.2017 12.2975C51.7225 -0.105233 22.0703 15.5085 15.1468 43.2863C14.2135 47.0312 14.0814 51.1732 13.0362 54.922C10.6028 62.3601 8.25048 68.6655 9.46872 76.6936C10.9149 84.836 12.4461 97.995 18.0491 104.431C20.217 106.922 24.3781 108.234 27.3115 109.422C39.6484 114.422 51.7739 112.325 64.8986 111.934C75.1 102.857 79.6678 94.8635 80.6905 81.414C80.9551 77.9354 82.1643 73.9047 82.6849 70.2625C77.3293 70.8168 67.2004 75.8678 62.8278 72.5632C61.6264 70.2574 62.2955 68.8964 64.1769 67.3088C67.911 64.1984 72.7223 63.7737 77.2408 62.5673C81.174 61.5171 84.7726 59.4314 88.9367 59.8868C91.087 61.6651 90.5521 68.8256 90.6237 71.6606C91.0079 83.9477 89.4318 96.2249 83.0786 106.953C76.4802 118.097 61.6199 122.051 49.5027 122.323C38.2381 122.576 27.7574 120.207 18.084 114.245C10.3843 109.498 3.61538 101.147 2.21367 92.1247C1.30927 86.3442 -0.798697 76.6305 0.318959 71.0054C1.61275 64.4937 2.85386 57.6431 3.85021 50.982C5.09263 42.676 8.24227 32.3226 12.7781 25.2636C23.1651 9.09735 35.1826 3.81062 53.3711 0.0540468Z" fill="#CBCADB"/>
</svg>
