<svg width="127" height="112" viewBox="0 0 127 112" fill="none" xmlns="http://www.w3.org/2000/svg">
<path d="M116.697 0.0420694C120.518 -0.195333 126.648 0.439166 126.993 5.42462C125.297 11.4848 104.852 8.23894 98.9158 10.1468C95.4708 11.2518 91.3956 12.6028 88.0673 13.7985C87.0744 14.1524 74.892 14.5193 73.9768 16.4099C71.6456 21.227 74.5121 35.3503 74.266 41.8508C73.8991 51.4634 72.2846 54.882 71.4773 62.8674L68.205 96.6044C67.8338 100.174 68.1705 108.483 65.8696 110.831C64.527 111.457 64.6306 111.431 63.1629 111.25C62.6319 110.939 62.1699 110.654 61.8203 110.132C58.3969 105.069 62.2434 69.4585 63.2578 62.2026C65.4724 44.5615 64.0694 36.4769 63.737 19.8932C58.7035 18.9566 50.92 18.9479 45.6879 18.8789C35.2884 18.7969 24.8889 18.8012 14.4881 18.8918C10.5001 18.9091 5.42811 19.0213 1.38314 18.7321C0.545221 18.6674 0.392842 18.0933 0 17.4588C0.0893607 13.7251 3.08314 13.5654 6.086 13.5438C16.9336 13.4618 27.7035 12.5683 38.5131 11.882C44.3626 11.3295 51.5373 12.3093 57.2443 11.3338C65.2954 9.95255 73.23 8.32524 81.4451 7.58282C83.8755 7.36268 88.5853 4.41028 91.4734 3.98727C96.4767 3.25348 101.381 3.91387 106.35 2.99448C110.135 2.12256 112.462 0.737011 116.697 0.0420694Z" fill="#BCD1CA"/>
</svg>
