<svg xmlns="http://www.w3.org/2000/svg" width="333" height="333" viewBox="0 0 333 333" fill="none">
  <path fill="currentColor" d="M23.327 209.213c10.237 20.24 27.462 37.747 49.428 50.827 13.077 21.973 30.586 39.187 50.826 49.427-48.044-14.36-85.893-52.2-100.254-100.254m118.884 98.654c-20.894-6.24-39.554-20.28-54.079-39.774 11.488 5.267 23.903 9.414 37.059 12.24 4.978 11.4 10.69 20.814 17.02 27.534m-6.827-25.507c10.024 1.6 20.396 2.427 31.019 2.427 10.621 0 20.993-.827 31.014-2.427-8.761 18.16-19.508 29.16-31.014 29.16s-22.255-11-31.019-29.16m55.208 25.507c6.331-6.72 12.043-16.134 17.019-27.52 13.154-2.84 25.566-6.987 37.053-12.254-14.524 19.494-33.183 33.534-54.072 39.774m18.635 1.6c20.236-10.24 37.742-27.454 50.816-49.427 21.972-13.08 39.197-30.587 49.433-50.84-14.356 48.053-52.203 85.907-100.249 100.267M311.521 166.4c0 11.507-11.001 22.253-29.157 31.013a198 198 0 0 0 2.429-31.013c0-10.627-.84-21-2.429-31.027 18.156 8.774 29.157 19.52 29.157 31.027m-2.046-42.827c-10.238-20.24-27.46-37.746-49.431-50.826-13.075-21.96-30.587-39.187-50.825-49.427 48.045 14.36 85.896 52.213 100.256 100.253m-118.882-98.64c20.888 6.227 39.544 20.28 54.068 39.76-11.484-5.266-23.896-9.413-37.05-12.24-4.976-11.4-10.688-20.8-17.018-27.52m6.827 25.494A198.4 198.4 0 0 0 166.403 48c-10.623 0-20.998.84-31.02 2.427 8.764-18.147 19.513-29.147 31.02-29.147s22.254 11 31.017 29.147m-55.209-25.494c-6.332 6.72-12.042 16.12-17.02 27.52-13.156 2.84-25.571 6.974-37.058 12.254 14.527-19.494 33.184-33.547 54.078-39.774m-18.622-1.613c-20.244 10.24-37.757 27.467-50.837 49.427-21.963 13.08-39.184 30.586-49.423 50.813C37.695 75.52 75.545 37.68 123.59 23.32M21.276 166.4c0-11.507 11.001-22.253 29.155-31.027a198 198 0 0 0-2.427 31.027c0 10.613.837 20.987 2.43 31.013-18.157-8.76-29.158-19.52-29.158-31.013m43.43 78.267c-19.498-14.534-33.54-33.187-39.771-54.08 6.716 6.333 16.125 12.04 27.522 17.026 2.832 13.147 6.978 25.56 12.248 37.054m56.677 26.133c-15.476-3.827-29.75-9.627-42.458-16.933-7.302-12.707-13.096-26.974-16.932-42.454 13.739 5.014 29.798 9.027 47.627 11.76 2.743 17.827 6.751 33.894 11.763 47.627m80.168 2.08c-11.279 2.147-23.01 3.4-35.148 3.4-12.14 0-23.874-1.253-35.151-3.4-5.357-13.56-9.736-30.013-12.745-48.44 15.024 1.907 31.088 2.947 47.896 2.947 16.806 0 32.865-1.04 47.89-2.947-3.009 18.427-7.386 34.88-12.742 48.44m52.318-19.013c-12.705 7.306-26.977 13.106-42.45 16.933 5.01-13.733 9.017-29.8 11.758-47.627 17.83-2.733 33.888-6.746 47.627-11.76-3.836 15.48-9.631 29.747-16.935 42.454m26.471-46.254c11.397-4.986 20.807-10.693 27.523-17.026-6.232 20.893-20.274 39.546-39.77 54.08 5.272-11.494 9.415-23.907 12.247-37.054m-12.241-119.48c19.49 14.52 33.532 33.187 39.764 54.067-6.719-6.32-16.126-12.04-27.523-17.013-2.829-13.16-6.973-25.574-12.241-37.054M227.388 166.4c0-16.813-1.047-32.867-2.943-47.893 18.423 3 34.87 7.386 48.442 12.733 2.136 11.28 3.396 23.013 3.396 35.16 0 12.133-1.26 23.867-3.396 35.147-13.572 5.36-30.019 9.733-48.442 12.746 1.895-15.026 2.943-31.093 2.943-47.893M211.419 61.987c15.476 3.84 29.745 9.64 42.453 16.933 7.301 12.707 13.096 26.987 16.932 42.453-13.739-5.013-29.797-9.013-47.627-11.76-2.741-17.826-6.748-33.88-11.758-47.626m-80.17-2.08c11.28-2.134 23.011-3.387 35.154-3.387 12.141 0 23.87 1.253 35.149 3.387 5.355 13.573 9.735 30.026 12.741 48.44-15.025-1.894-31.084-2.934-47.89-2.934-16.808 0-32.872 1.04-47.898 2.934 3.008-18.414 7.388-34.867 12.744-48.44m-14.034 57.306a368 368 0 0 1 49.188-3.293c17.189 0 33.724 1.2 49.18 3.293a368 368 0 0 1 3.296 49.187c0 17.187-1.206 33.72-3.296 49.187a370 370 0 0 1-49.18 3.293 370 370 0 0 1-49.187-3.293 368 368 0 0 1-3.297-49.187c0-17.187 1.205-33.733 3.296-49.187M78.925 78.92c12.708-7.293 26.98-13.093 42.458-16.933-5.012 13.746-9.022 29.8-11.763 47.626-17.83 2.747-33.888 6.76-47.627 11.76 3.836-15.466 9.63-29.746 16.932-42.453m-26.468 46.267C41.06 130.16 31.651 135.88 24.935 142.2c6.232-20.88 20.273-39.547 39.766-54.067-5.269 11.48-9.414 23.894-12.244 37.054m52.951 41.213c0 16.8 1.048 32.867 2.944 47.893-18.423-3.013-34.87-7.386-48.443-12.746-2.134-11.28-3.394-23.014-3.394-35.147 0-12.147 1.26-23.88 3.394-35.16 13.574-5.347 30.02-9.733 48.443-12.733-1.896 15.026-2.944 31.08-2.944 47.893M0 166.4c0 91.747 74.645 166.4 166.399 166.4 91.753 0 166.398-74.653 166.398-166.4C332.797 74.64 258.152 0 166.399 0 74.645 0 0 74.64 0 166.4"/>
</svg>
