<?xml version="1.0" encoding="UTF-8"?>
<svg xmlns="http://www.w3.org/2000/svg" xmlns:xlink="http://www.w3.org/1999/xlink" width="px" height="px" viewBox="0 0 167 167" version="1.1">
<g id="surface1">
<path fill="currentColor" fill-rule="nonzero" d="M 21.804688 56.242188 C 20.863281 55.210938 19.941406 54.15625 19.050781 53.078125 C 15.652344 48.960938 12.636719 44.507812 10.070312 39.773438 C 9.429688 38.589844 8.8125 37.390625 8.226562 36.175781 C 5.882812 31.3125 4 26.183594 2.621094 20.855469 C 0.910156 14.1875 0 7.203125 0 0 C 23.042969 0 43.90625 9.335938 59.003906 24.441406 C 60.074219 25.507812 61.109375 26.613281 62.121094 27.742188 C 75.371094 42.515625 83.441406 62.039062 83.441406 83.441406 C 83.449219 37.363281 120.808594 0 166.894531 0 C 166.894531 46.085938 129.527344 83.441406 83.441406 83.441406 C 129.527344 83.449219 166.894531 120.808594 166.894531 166.894531 C 120.808594 166.894531 83.449219 129.527344 83.441406 83.441406 C 83.441406 129.527344 46.078125 166.894531 0 166.894531 C 0 120.808594 37.359375 83.449219 83.441406 83.441406 C 59.03125 83.441406 37.0625 72.957031 21.804688 56.242188 Z M 21.804688 56.242188 "/>
</g>
</svg>
