<?xml version="1.0" encoding="UTF-8"?>
<svg xmlns="http://www.w3.org/2000/svg" xmlns:xlink="http://www.w3.org/1999/xlink" width="px" height="px" viewBox="0 0 174 167" version="1.1">
<g id="surface1">
<path fill="currentColor" fill-rule="nonzero" d="M 76.949219 64.910156 L 77.109375 63.730469 C -38.203125 26.800781 73.9375 -54.984375 86.023438 56.378906 C 86.53125 56.296875 87.042969 56.261719 87.550781 56.289062 C 99.667969 -54.976562 211.738281 26.769531 96.484375 63.691406 C 96.605469 64.078125 96.695312 64.480469 96.753906 64.890625 C 220.464844 49.609375 176.558594 183.914062 92.824219 74.398438 C 92.5 74.644531 92.160156 74.851562 91.804688 75.039062 C 157.664062 197.492188 15.984375 197.511719 81.769531 75.113281 C 81.414062 74.90625 81.074219 74.679688 80.746094 74.429688 C -3 183.933594 -46.890625 49.53125 76.949219 64.910156 Z M 76.949219 64.910156 "/>
</g>
</svg>
