<?xml version="1.0" encoding="UTF-8"?>
<svg xmlns="http://www.w3.org/2000/svg" xmlns:xlink="http://www.w3.org/1999/xlink" width="px" height="px" viewBox="0 0 175 167" version="1.1">
<g id="surface1">
<path fill="currentColor" fill-rule="nonzero" d="M 0 83.449219 C 0 91.070312 34.1875 93.171875 36.414062 100.050781 C 38.71875 107.179688 12.378906 129.023438 16.683594 134.957031 C 21.03125 140.945312 49.914062 122.539062 55.886719 126.898438 C 61.800781 131.21875 53.242188 164.472656 60.347656 166.785156 C 67.207031 169.019531 79.746094 137.144531 87.34375 137.144531 C 94.941406 137.144531 107.480469 169.019531 114.335938 166.785156 C 121.445312 164.472656 112.886719 131.21875 118.800781 126.898438 C 124.773438 122.539062 153.65625 140.945312 158.003906 134.957031 C 162.308594 129.019531 135.964844 107.179688 138.273438 100.050781 C 140.5 93.171875 174.6875 91.070312 174.6875 83.449219 C 174.6875 75.824219 140.5 73.726562 138.273438 66.84375 C 135.964844 59.71875 162.304688 37.871094 158.003906 31.941406 C 153.652344 25.949219 124.773438 44.359375 118.800781 40 C 112.886719 35.679688 121.445312 2.425781 114.335938 0.113281 C 107.480469 -2.121094 94.941406 29.753906 87.34375 29.753906 C 79.746094 29.753906 67.207031 -2.121094 60.347656 0.113281 C 53.242188 2.425781 61.800781 35.679688 55.886719 40 C 49.910156 44.359375 21.03125 25.949219 16.683594 31.941406 C 12.378906 37.871094 38.71875 59.71875 36.414062 66.84375 C 34.1875 73.726562 0 75.824219 0 83.449219 Z M 0 83.449219 "/>
</g>
</svg>
