<?xml version="1.0" encoding="UTF-8"?>
<svg xmlns="http://www.w3.org/2000/svg" xmlns:xlink="http://www.w3.org/1999/xlink" width="px" height="px" viewBox="0 0 191 167" version="1.1">
<g id="surface1">
<path fill="currentColor" fill-rule="nonzero" d="M 0 83.449219 C 0 97.449219 38.140625 101.335938 44.675781 112.644531 C 51.421875 124.304688 35.953125 159.234375 47.609375 165.984375 C 58.910156 172.523438 81.265625 141.855469 95.261719 141.855469 C 109.257812 141.855469 131.613281 172.523438 142.914062 165.984375 C 154.570312 159.234375 139.101562 124.304688 145.847656 112.644531 C 152.386719 101.335938 190.523438 97.449219 190.523438 83.449219 C 190.523438 69.445312 152.386719 65.554688 145.847656 54.253906 C 139.101562 42.585938 154.570312 7.660156 142.914062 0.914062 C 131.613281 -5.625 109.257812 25.039062 95.261719 25.039062 C 81.265625 25.039062 58.914062 -5.625 47.609375 0.914062 C 35.953125 7.660156 51.421875 42.585938 44.675781 54.253906 C 38.140625 65.554688 0 69.445312 0 83.449219 Z M 0 83.449219 "/>
</g>
</svg>
